<?xml version="1.0" encoding="UTF-8"?>
<!-- Created with Inkscape (http://www.inkscape.org/) -->
<svg width="100" height="63.79" version="1.1" viewBox="0 0 26.458 16.878" xmlns="http://www.w3.org/2000/svg">
 <g transform="translate(-47.559 -91.72)">
  <g transform="matrix(.6091 0 0 .6091 18.591 35.853)">
   <g fill="#ecf0f1" stroke-width=".52252">
    <path d="m47.559 110.41h2.1656v1.2087q1.1584-1.4102 2.77-1.4102 1.7123 0 2.493 1.4102 1.1584-1.4102 2.7196-1.4102 2.8959 0 2.8959 3.3995v5.6659h-2.3419v-5.0615q0-1.5109-0.37772-1.8634-0.35254-0.35253-0.88136-0.35253-1.7375 0-1.7375 3.0218v4.2557h-2.3419v-4.8601q0-1.0828-0.20145-1.7375-0.17628-0.67989-1.0324-0.67989-0.75545 0-1.2843 0.50363-0.50363 0.47845-0.50363 2.4678v4.3061h-2.3419z"/>
    <path d="m61.988 114.67q0-1.8634 1.2591-3.1729 1.2591-1.3346 3.2988-1.3346 2.0397 0 3.2988 1.3094 1.2843 1.2843 1.2843 3.2988 0 2.0145-1.2843 3.3492-1.2591 1.3094-3.2736 1.3094-2.0901 0-3.3492-1.2339-1.2339-1.2339-1.2339-3.5254zm2.3923 0.126q0 1.2087 0.57918 1.9642 0.57918 0.75545 1.5864 0.75545 1.0324 0 1.5864-0.75545 0.57918-0.75545 0.57918-1.9894 0-1.2087-0.57918-1.939-0.554-0.75545-1.5864-0.75545-1.0073 0-1.5864 0.75545-0.57918 0.75545-0.57918 1.9642z"/>
    <path d="m78.985 119.28h-2.3419v-8.8639h2.1908v1.2591q0.90654-1.4605 2.0145-1.4605 0.80581 0 1.5361 0.45327l-0.73027 2.0397q-0.57918-0.37774-1.108-0.37774-0.88136 0-1.2339 0.83099-0.32736 0.83099-0.32736 3.3743z"/>
    <path d="m85.054 113.06-2.1153-0.37773q0.70508-2.5182 3.8276-2.5182 2.1908 0 2.9462 0.75545 0.78063 0.75545 0.78063 2.6692l-0.02518 2.7196q0 1.8382 0.52881 2.9211h-2.3167q-0.12592-0.35254-0.30218-0.95689-1.2087 1.1583-2.7448 1.1583-1.3094 0-2.1404-0.70507-0.80581-0.70509-0.80581-1.9138 0-0.95689 0.52882-1.662 0.52881-0.70509 2.6944-1.1332 1.662-0.3022 2.2915-0.55401v-0.25182q0-1.2591-1.6116-1.2591-1.1332 0-1.5361 1.108zm3.1477 1.9138q-1.1332 0.22663-2.7196 0.75544-0.45327 0.32736-0.45327 0.83099 0 0.57918 0.4029 0.90655 0.40291 0.30218 0.90654 0.30218 1.8634 0 1.8634-2.3167z"/>
   </g>
   <g transform="translate(1.1132)" fill="#abebc6" stroke="#ecf0f1" stroke-width=".11053px">
    <path d="m73.377 100.84c-1.834 2.8682-3.6207 5.7054-6.0523 6.8497 3.2891 4.6474 6.0523-6.8497 6.0523-6.8497zm0 0s-10.102 1.128-6.0523 6.8497z"/>
    <path d="m80.48 97.491c-2.6156 0.02617-6.7297 3.06-7.1034 3.3466 3.0732-0.46288 5.9363-1.3954 9.2273-0.0853 0.20502-2.4637-0.75381-3.275-2.1239-3.2613zm2.1239 3.2613-9.2273 0.0853s8.7552 5.5887 9.2273-0.0853z"/>
    <path d="m71.538 91.776c-0.57115-0.0032-1.2764 0.21917-2.1446 0.73794 1.964 2.3563 3.2656 5.176 3.9837 8.3235 0.12161-0.60462 1.6512-9.0418-1.8392-9.0615zm1.8392 9.0615-3.9837-8.3235c-4.8875 2.9205 3.9837 8.3235 3.9837 8.3235z"/>
    <path d="m73.377 100.84c0.56135 1.6983 2.6585 18.09-1.5496 18.44-4.276 0.35506 2.0426 0.74163 1.5496-18.44z"/>
   </g>
  </g>
 </g>
</svg>
