<?xml version="1.0" encoding="UTF-8"?>
<!-- Created with Inkscape (http://www.inkscape.org/) -->
<svg width="100" height="100" version="1.1" viewBox="0 0 26.458 26.458" xmlns="http://www.w3.org/2000/svg">
 <g transform="translate(-61.215 -60.16)">
  <g transform="matrix(1.0576 0 0 1.0371 -3.5237 -2.2314)">
   <path d="m86.233 72.916a12.509 12.756 0 0 1-12.509 12.756 12.509 12.756 0 0 1-12.509-12.756 12.509 12.756 0 0 1 12.509-12.756 12.509 12.756 0 0 1 12.509 12.756z" fill="#34495e"/>
   <g transform="matrix(.6091 0 0 .6091 28.346 8.6097)" fill="#abebc6" stroke="#ecf0f1" stroke-width=".11053px">
    <path d="m73.377 100.84c-1.834 2.8682-3.6207 5.7054-6.0523 6.8497 3.2891 4.6474 6.0523-6.8497 6.0523-6.8497zm0 0s-10.102 1.128-6.0523 6.8497z"/>
    <path d="m80.48 97.491c-2.6156 0.02617-6.7297 3.06-7.1034 3.3466 3.0732-0.46288 5.9363-1.3954 9.2273-0.0853 0.20502-2.4637-0.75381-3.275-2.1239-3.2613zm2.1239 3.2613-9.2273 0.0853s8.7552 5.5887 9.2273-0.0853z"/>
    <path d="m71.538 91.776c-0.57115-0.0032-1.2764 0.21917-2.1446 0.73794 1.964 2.3563 3.2656 5.176 3.9837 8.3235 0.12161-0.60462 1.6512-9.0418-1.8392-9.0615zm1.8392 9.0615-3.9837-8.3235c-4.8875 2.9205 3.9837 8.3235 3.9837 8.3235z"/>
    <path d="m73.377 100.84c0.56135 1.6983 2.6585 18.09-1.5496 18.44-4.276 0.35506 2.0426 0.74163 1.5496-18.44z"/>
   </g>
  </g>
 </g>
</svg>
